<mxfile host="Electron" agent="Mozilla/5.0 (Windows NT 10.0; Win64; x64) AppleWebKit/537.36 (KHTML, like Gecko) draw.io/26.1.1 Chrome/132.0.6834.210 Electron/34.3.3 Safari/537.36" version="26.1.1">
  <diagram name="Arquitetura do Sistema" id="TAIoQjwdWTJmelJgpvJy">
    <mxGraphModel dx="3160" dy="1380" grid="1" gridSize="10" guides="1" tooltips="1" connect="1" arrows="1" fold="1" page="1" pageScale="1" pageWidth="827" pageHeight="1169" math="0" shadow="0">
      <root>
        <mxCell id="0" />
        <mxCell id="1" parent="0" />
        <mxCell id="EBlCGBkutDvsYMYkgB6L-1" value="" style="rounded=0;whiteSpace=wrap;html=1;movable=0;resizable=0;rotatable=0;deletable=0;editable=0;locked=1;connectable=0;" vertex="1" parent="1">
          <mxGeometry x="40" y="120" width="2610" height="1050" as="geometry" />
        </mxCell>
        <mxCell id="EBlCGBkutDvsYMYkgB6L-3" value="&lt;font style=&quot;font-size: 22px;&quot;&gt;AWS Cloud&lt;/font&gt;" style="outlineConnect=0;dashed=0;verticalLabelPosition=bottom;verticalAlign=top;align=center;html=1;shape=mxgraph.aws3.cloud_2;fillColor=#F58534;gradientColor=none;" vertex="1" parent="1">
          <mxGeometry x="18" y="102" width="50" height="50" as="geometry" />
        </mxCell>
        <mxCell id="EBlCGBkutDvsYMYkgB6L-6" value="Amazon API Gateway" style="sketch=0;outlineConnect=0;fontColor=#232F3E;gradientColor=none;strokeColor=#ffffff;fillColor=#232F3E;dashed=0;verticalLabelPosition=middle;verticalAlign=bottom;align=center;html=1;whiteSpace=wrap;fontSize=10;fontStyle=1;spacing=3;shape=mxgraph.aws4.productIcon;prIcon=mxgraph.aws4.api_gateway;" vertex="1" parent="1">
          <mxGeometry x="13" y="295" width="60" height="100" as="geometry" />
        </mxCell>
        <mxCell id="EBlCGBkutDvsYMYkgB6L-8" style="edgeStyle=orthogonalEdgeStyle;rounded=0;orthogonalLoop=1;jettySize=auto;html=1;" edge="1" parent="1" source="EBlCGBkutDvsYMYkgB6L-7" target="EBlCGBkutDvsYMYkgB6L-6">
          <mxGeometry relative="1" as="geometry" />
        </mxCell>
        <mxCell id="EBlCGBkutDvsYMYkgB6L-7" value="Actor" style="shape=umlActor;verticalLabelPosition=bottom;verticalAlign=top;html=1;outlineConnect=0;" vertex="1" parent="1">
          <mxGeometry x="-180" y="315" width="30" height="60" as="geometry" />
        </mxCell>
        <mxCell id="EBlCGBkutDvsYMYkgB6L-9" value="" style="rounded=0;whiteSpace=wrap;html=1;movable=0;resizable=0;rotatable=0;deletable=0;editable=0;locked=1;connectable=0;" vertex="1" parent="1">
          <mxGeometry x="190" y="205" width="2280" height="825" as="geometry" />
        </mxCell>
        <mxCell id="EBlCGBkutDvsYMYkgB6L-5" value="Amazon ECS" style="sketch=0;outlineConnect=0;fontColor=#232F3E;gradientColor=none;strokeColor=#ffffff;fillColor=#232F3E;dashed=0;verticalLabelPosition=middle;verticalAlign=bottom;align=center;html=1;whiteSpace=wrap;fontSize=10;fontStyle=1;spacing=3;shape=mxgraph.aws4.productIcon;prIcon=mxgraph.aws4.ecs;" vertex="1" parent="1">
          <mxGeometry x="170" y="180" width="60" height="85" as="geometry" />
        </mxCell>
        <mxCell id="EBlCGBkutDvsYMYkgB6L-20" style="edgeStyle=orthogonalEdgeStyle;rounded=0;orthogonalLoop=1;jettySize=auto;html=1;" edge="1" parent="1" source="EBlCGBkutDvsYMYkgB6L-11" target="EBlCGBkutDvsYMYkgB6L-17">
          <mxGeometry relative="1" as="geometry" />
        </mxCell>
        <mxCell id="EBlCGBkutDvsYMYkgB6L-11" value="&lt;font style=&quot;font-size: 22px;&quot;&gt;NEdge ACL&lt;/font&gt;" style="sketch=0;points=[[0,0,0],[0.25,0,0],[0.5,0,0],[0.75,0,0],[1,0,0],[0,1,0],[0.25,1,0],[0.5,1,0],[0.75,1,0],[1,1,0],[0,0.25,0],[0,0.5,0],[0,0.75,0],[1,0.25,0],[1,0.5,0],[1,0.75,0]];outlineConnect=0;fontColor=#232F3E;fillColor=#ED7100;strokeColor=#ffffff;dashed=0;verticalLabelPosition=bottom;verticalAlign=top;align=center;html=1;fontSize=12;fontStyle=0;aspect=fixed;shape=mxgraph.aws4.resourceIcon;resIcon=mxgraph.aws4.ecs;" vertex="1" parent="1">
          <mxGeometry x="230" y="307.5" width="75" height="75" as="geometry" />
        </mxCell>
        <mxCell id="EBlCGBkutDvsYMYkgB6L-12" style="edgeStyle=orthogonalEdgeStyle;rounded=0;orthogonalLoop=1;jettySize=auto;html=1;entryX=0;entryY=0.5;entryDx=0;entryDy=0;entryPerimeter=0;" edge="1" parent="1" source="EBlCGBkutDvsYMYkgB6L-6" target="EBlCGBkutDvsYMYkgB6L-11">
          <mxGeometry relative="1" as="geometry" />
        </mxCell>
        <mxCell id="EBlCGBkutDvsYMYkgB6L-15" value="&lt;font style=&quot;font-size: 22px;&quot;&gt;Order Tbl&lt;/font&gt;" style="outlineConnect=0;dashed=0;verticalLabelPosition=bottom;verticalAlign=top;align=center;html=1;shape=mxgraph.aws3.dynamo_db;fillColor=#2E73B8;gradientColor=none;" vertex="1" parent="1">
          <mxGeometry x="500" y="1050" width="63" height="70" as="geometry" />
        </mxCell>
        <mxCell id="EBlCGBkutDvsYMYkgB6L-22" style="edgeStyle=orthogonalEdgeStyle;rounded=0;orthogonalLoop=1;jettySize=auto;html=1;" edge="1" parent="1" source="EBlCGBkutDvsYMYkgB6L-17" target="EBlCGBkutDvsYMYkgB6L-21">
          <mxGeometry relative="1" as="geometry" />
        </mxCell>
        <mxCell id="EBlCGBkutDvsYMYkgB6L-31" style="edgeStyle=orthogonalEdgeStyle;rounded=0;orthogonalLoop=1;jettySize=auto;html=1;" edge="1" parent="1" source="EBlCGBkutDvsYMYkgB6L-17" target="EBlCGBkutDvsYMYkgB6L-30">
          <mxGeometry relative="1" as="geometry" />
        </mxCell>
        <mxCell id="EBlCGBkutDvsYMYkgB6L-17" value="&lt;font style=&quot;font-size: 22px;&quot;&gt;nedge-order-topic&lt;/font&gt;" style="sketch=0;points=[[0,0,0],[0.25,0,0],[0.5,0,0],[0.75,0,0],[1,0,0],[0,1,0],[0.25,1,0],[0.5,1,0],[0.75,1,0],[1,1,0],[0,0.25,0],[0,0.5,0],[0,0.75,0],[1,0.25,0],[1,0.5,0],[1,0.75,0]];outlineConnect=0;fontColor=#232F3E;fillColor=#E7157B;strokeColor=#ffffff;dashed=0;verticalLabelPosition=bottom;verticalAlign=top;align=center;html=1;fontSize=12;fontStyle=0;aspect=fixed;shape=mxgraph.aws4.resourceIcon;resIcon=mxgraph.aws4.sns;" vertex="1" parent="1">
          <mxGeometry x="460" y="309" width="72" height="72" as="geometry" />
        </mxCell>
        <mxCell id="EBlCGBkutDvsYMYkgB6L-70" style="edgeStyle=orthogonalEdgeStyle;rounded=0;orthogonalLoop=1;jettySize=auto;html=1;" edge="1" parent="1" source="EBlCGBkutDvsYMYkgB6L-19" target="EBlCGBkutDvsYMYkgB6L-68">
          <mxGeometry relative="1" as="geometry" />
        </mxCell>
        <mxCell id="EBlCGBkutDvsYMYkgB6L-75" style="edgeStyle=orthogonalEdgeStyle;rounded=0;orthogonalLoop=1;jettySize=auto;html=1;" edge="1" parent="1" source="EBlCGBkutDvsYMYkgB6L-19" target="EBlCGBkutDvsYMYkgB6L-74">
          <mxGeometry relative="1" as="geometry">
            <Array as="points">
              <mxPoint x="840" y="808" />
              <mxPoint x="840" y="1085" />
            </Array>
          </mxGeometry>
        </mxCell>
        <mxCell id="EBlCGBkutDvsYMYkgB6L-19" value="&lt;font style=&quot;font-size: 22px;&quot;&gt;NEdge Persiste&lt;/font&gt;&lt;span style=&quot;font-size: 22px; background-color: transparent; color: light-dark(rgb(35, 47, 62), rgb(189, 199, 212));&quot;&gt;nce&lt;/span&gt;" style="sketch=0;points=[[0,0,0],[0.25,0,0],[0.5,0,0],[0.75,0,0],[1,0,0],[0,1,0],[0.25,1,0],[0.5,1,0],[0.75,1,0],[1,1,0],[0,0.25,0],[0,0.5,0],[0,0.75,0],[1,0.25,0],[1,0.5,0],[1,0.75,0]];outlineConnect=0;fontColor=#232F3E;fillColor=#ED7100;strokeColor=#ffffff;dashed=0;verticalLabelPosition=bottom;verticalAlign=top;align=center;html=1;fontSize=12;fontStyle=0;aspect=fixed;shape=mxgraph.aws4.resourceIcon;resIcon=mxgraph.aws4.ecs;" vertex="1" parent="1">
          <mxGeometry x="650" y="770" width="75" height="75" as="geometry" />
        </mxCell>
        <mxCell id="EBlCGBkutDvsYMYkgB6L-23" style="edgeStyle=orthogonalEdgeStyle;rounded=0;orthogonalLoop=1;jettySize=auto;html=1;" edge="1" parent="1" source="EBlCGBkutDvsYMYkgB6L-21" target="EBlCGBkutDvsYMYkgB6L-19">
          <mxGeometry relative="1" as="geometry" />
        </mxCell>
        <mxCell id="EBlCGBkutDvsYMYkgB6L-21" value="&lt;font style=&quot;font-size: 22px;&quot;&gt;nedge-&lt;span style=&quot;background-color: transparent; color: light-dark(rgb(35, 47, 62), rgb(189, 199, 212));&quot;&gt;order-persistance-queue&lt;/span&gt;&lt;/font&gt;" style="sketch=0;points=[[0,0,0],[0.25,0,0],[0.5,0,0],[0.75,0,0],[1,0,0],[0,1,0],[0.25,1,0],[0.5,1,0],[0.75,1,0],[1,1,0],[0,0.25,0],[0,0.5,0],[0,0.75,0],[1,0.25,0],[1,0.5,0],[1,0.75,0]];outlineConnect=0;fontColor=#232F3E;fillColor=#E7157B;strokeColor=#ffffff;dashed=0;verticalLabelPosition=bottom;verticalAlign=top;align=center;html=1;fontSize=12;fontStyle=0;aspect=fixed;shape=mxgraph.aws4.resourceIcon;resIcon=mxgraph.aws4.sqs;" vertex="1" parent="1">
          <mxGeometry x="457" y="480" width="78" height="78" as="geometry" />
        </mxCell>
        <mxCell id="EBlCGBkutDvsYMYkgB6L-29" style="edgeStyle=orthogonalEdgeStyle;rounded=0;orthogonalLoop=1;jettySize=auto;html=1;" edge="1" parent="1" source="EBlCGBkutDvsYMYkgB6L-24" target="EBlCGBkutDvsYMYkgB6L-25">
          <mxGeometry relative="1" as="geometry" />
        </mxCell>
        <mxCell id="EBlCGBkutDvsYMYkgB6L-35" style="edgeStyle=orthogonalEdgeStyle;rounded=0;orthogonalLoop=1;jettySize=auto;html=1;" edge="1" parent="1" source="EBlCGBkutDvsYMYkgB6L-24" target="EBlCGBkutDvsYMYkgB6L-34">
          <mxGeometry relative="1" as="geometry">
            <Array as="points">
              <mxPoint x="1776" y="920" />
              <mxPoint x="2074" y="920" />
            </Array>
          </mxGeometry>
        </mxCell>
        <mxCell id="EBlCGBkutDvsYMYkgB6L-72" style="edgeStyle=orthogonalEdgeStyle;rounded=0;orthogonalLoop=1;jettySize=auto;html=1;" edge="1" parent="1" source="EBlCGBkutDvsYMYkgB6L-24" target="EBlCGBkutDvsYMYkgB6L-71">
          <mxGeometry relative="1" as="geometry" />
        </mxCell>
        <mxCell id="EBlCGBkutDvsYMYkgB6L-24" value="&lt;font style=&quot;font-size: 22px;&quot;&gt;NEdge Notification&lt;/font&gt;" style="sketch=0;points=[[0,0,0],[0.25,0,0],[0.5,0,0],[0.75,0,0],[1,0,0],[0,1,0],[0.25,1,0],[0.5,1,0],[0.75,1,0],[1,1,0],[0,0.25,0],[0,0.5,0],[0,0.75,0],[1,0.25,0],[1,0.5,0],[1,0.75,0]];outlineConnect=0;fontColor=#232F3E;fillColor=#ED7100;strokeColor=#ffffff;dashed=0;verticalLabelPosition=bottom;verticalAlign=top;align=center;html=1;fontSize=12;fontStyle=0;aspect=fixed;shape=mxgraph.aws4.resourceIcon;resIcon=mxgraph.aws4.ecs;" vertex="1" parent="1">
          <mxGeometry x="1738" y="760" width="75" height="75" as="geometry" />
        </mxCell>
        <mxCell id="EBlCGBkutDvsYMYkgB6L-27" style="edgeStyle=orthogonalEdgeStyle;rounded=0;orthogonalLoop=1;jettySize=auto;html=1;" edge="1" parent="1" source="EBlCGBkutDvsYMYkgB6L-25" target="EBlCGBkutDvsYMYkgB6L-26">
          <mxGeometry relative="1" as="geometry" />
        </mxCell>
        <mxCell id="EBlCGBkutDvsYMYkgB6L-25" value="&lt;font style=&quot;font-size: 22px;&quot;&gt;nedge-order-topic&lt;/font&gt;" style="sketch=0;points=[[0,0,0],[0.25,0,0],[0.5,0,0],[0.75,0,0],[1,0,0],[0,1,0],[0.25,1,0],[0.5,1,0],[0.75,1,0],[1,1,0],[0,0.25,0],[0,0.5,0],[0,0.75,0],[1,0.25,0],[1,0.5,0],[1,0.75,0]];outlineConnect=0;fontColor=#232F3E;fillColor=#E7157B;strokeColor=#ffffff;dashed=0;verticalLabelPosition=bottom;verticalAlign=top;align=center;html=1;fontSize=12;fontStyle=0;aspect=fixed;shape=mxgraph.aws4.resourceIcon;resIcon=mxgraph.aws4.sns;" vertex="1" parent="1">
          <mxGeometry x="1739.5" y="1000" width="72" height="72" as="geometry" />
        </mxCell>
        <mxCell id="EBlCGBkutDvsYMYkgB6L-26" value="&lt;font style=&quot;font-size: 22px;&quot;&gt;Client Device/E-mail&lt;/font&gt;" style="sketch=0;pointerEvents=1;shadow=0;dashed=0;html=1;strokeColor=none;labelPosition=center;verticalLabelPosition=bottom;verticalAlign=top;align=center;fillColor=#505050;shape=mxgraph.mscae.intune.device_group" vertex="1" parent="1">
          <mxGeometry x="1700" y="1290" width="150" height="130" as="geometry" />
        </mxCell>
        <mxCell id="EBlCGBkutDvsYMYkgB6L-58" style="edgeStyle=orthogonalEdgeStyle;rounded=0;orthogonalLoop=1;jettySize=auto;html=1;" edge="1" parent="1" source="EBlCGBkutDvsYMYkgB6L-30" target="EBlCGBkutDvsYMYkgB6L-56">
          <mxGeometry relative="1" as="geometry" />
        </mxCell>
        <mxCell id="EBlCGBkutDvsYMYkgB6L-30" value="&lt;font style=&quot;font-size: 22px;&quot;&gt;NEdge Orchestrator&lt;/font&gt;" style="sketch=0;points=[[0,0,0],[0.25,0,0],[0.5,0,0],[0.75,0,0],[1,0,0],[0,1,0],[0.25,1,0],[0.5,1,0],[0.75,1,0],[1,1,0],[0,0.25,0],[0,0.5,0],[0,0.75,0],[1,0.25,0],[1,0.5,0],[1,0.75,0]];outlineConnect=0;fontColor=#232F3E;fillColor=#ED7100;strokeColor=#ffffff;dashed=0;verticalLabelPosition=bottom;verticalAlign=top;align=center;html=1;fontSize=12;fontStyle=0;aspect=fixed;shape=mxgraph.aws4.resourceIcon;resIcon=mxgraph.aws4.ecs;" vertex="1" parent="1">
          <mxGeometry x="810" y="307.5" width="75" height="75" as="geometry" />
        </mxCell>
        <mxCell id="EBlCGBkutDvsYMYkgB6L-37" style="edgeStyle=orthogonalEdgeStyle;rounded=0;orthogonalLoop=1;jettySize=auto;html=1;" edge="1" parent="1" source="EBlCGBkutDvsYMYkgB6L-34" target="EBlCGBkutDvsYMYkgB6L-36">
          <mxGeometry relative="1" as="geometry" />
        </mxCell>
        <mxCell id="EBlCGBkutDvsYMYkgB6L-34" value="&lt;font style=&quot;font-size: 22px;&quot;&gt;nedge-supply-topic&lt;/font&gt;" style="sketch=0;points=[[0,0,0],[0.25,0,0],[0.5,0,0],[0.75,0,0],[1,0,0],[0,1,0],[0.25,1,0],[0.5,1,0],[0.75,1,0],[1,1,0],[0,0.25,0],[0,0.5,0],[0,0.75,0],[1,0.25,0],[1,0.5,0],[1,0.75,0]];outlineConnect=0;fontColor=#232F3E;fillColor=#E7157B;strokeColor=#ffffff;dashed=0;verticalLabelPosition=bottom;verticalAlign=top;align=center;html=1;fontSize=12;fontStyle=0;aspect=fixed;shape=mxgraph.aws4.resourceIcon;resIcon=mxgraph.aws4.sns;" vertex="1" parent="1">
          <mxGeometry x="2038" y="1000" width="72" height="72" as="geometry" />
        </mxCell>
        <mxCell id="EBlCGBkutDvsYMYkgB6L-36" value="&lt;font style=&quot;font-size: 22px;&quot;&gt;Company ERP&lt;/font&gt;" style="points=[[0.13,0.02,0],[0.5,0,0],[0.87,0.02,0],[0.885,0.4,0],[0.985,0.985,0],[0.5,1,0],[0.015,0.985,0],[0.115,0.4,0]];verticalLabelPosition=bottom;sketch=0;html=1;verticalAlign=top;aspect=fixed;align=center;pointerEvents=1;shape=mxgraph.cisco19.laptop;fillColor=#005073;strokeColor=none;" vertex="1" parent="1">
          <mxGeometry x="2002.07" y="1290" width="142.86" height="100" as="geometry" />
        </mxCell>
        <mxCell id="EBlCGBkutDvsYMYkgB6L-47" style="edgeStyle=orthogonalEdgeStyle;rounded=0;orthogonalLoop=1;jettySize=auto;html=1;" edge="1" parent="1" source="EBlCGBkutDvsYMYkgB6L-38" target="EBlCGBkutDvsYMYkgB6L-46">
          <mxGeometry relative="1" as="geometry" />
        </mxCell>
        <mxCell id="EBlCGBkutDvsYMYkgB6L-85" style="edgeStyle=orthogonalEdgeStyle;rounded=0;orthogonalLoop=1;jettySize=auto;html=1;" edge="1" parent="1" source="EBlCGBkutDvsYMYkgB6L-38" target="EBlCGBkutDvsYMYkgB6L-80">
          <mxGeometry relative="1" as="geometry" />
        </mxCell>
        <mxCell id="EBlCGBkutDvsYMYkgB6L-38" value="&lt;font style=&quot;font-size: 22px;&quot;&gt;NEdge Brain&lt;/font&gt;" style="sketch=0;points=[[0,0,0],[0.25,0,0],[0.5,0,0],[0.75,0,0],[1,0,0],[0,1,0],[0.25,1,0],[0.5,1,0],[0.75,1,0],[1,1,0],[0,0.25,0],[0,0.5,0],[0,0.75,0],[1,0.25,0],[1,0.5,0],[1,0.75,0]];outlineConnect=0;fontColor=#232F3E;fillColor=#ED7100;strokeColor=#ffffff;dashed=0;verticalLabelPosition=bottom;verticalAlign=top;align=center;html=1;fontSize=12;fontStyle=0;aspect=fixed;shape=mxgraph.aws4.resourceIcon;resIcon=mxgraph.aws4.ecs;" vertex="1" parent="1">
          <mxGeometry x="2340" y="420" width="75" height="75" as="geometry" />
        </mxCell>
        <mxCell id="EBlCGBkutDvsYMYkgB6L-40" style="edgeStyle=orthogonalEdgeStyle;rounded=0;orthogonalLoop=1;jettySize=auto;html=1;" edge="1" parent="1" source="EBlCGBkutDvsYMYkgB6L-39" target="EBlCGBkutDvsYMYkgB6L-38">
          <mxGeometry relative="1" as="geometry" />
        </mxCell>
        <mxCell id="EBlCGBkutDvsYMYkgB6L-41" value="Periodically" style="edgeLabel;html=1;align=center;verticalAlign=middle;resizable=0;points=[];fontSize=21;" vertex="1" connectable="0" parent="EBlCGBkutDvsYMYkgB6L-40">
          <mxGeometry x="-0.4101" y="2" relative="1" as="geometry">
            <mxPoint as="offset" />
          </mxGeometry>
        </mxCell>
        <mxCell id="EBlCGBkutDvsYMYkgB6L-39" value="&lt;font style=&quot;font-size: 22px;&quot;&gt;Supply Control&lt;/font&gt;" style="sketch=0;points=[[0,0,0],[0.25,0,0],[0.5,0,0],[0.75,0,0],[1,0,0],[0,1,0],[0.25,1,0],[0.5,1,0],[0.75,1,0],[1,1,0],[0,0.25,0],[0,0.5,0],[0,0.75,0],[1,0.25,0],[1,0.5,0],[1,0.75,0]];outlineConnect=0;fontColor=#232F3E;fillColor=#E7157B;strokeColor=#ffffff;dashed=0;verticalLabelPosition=bottom;verticalAlign=top;align=center;html=1;fontSize=12;fontStyle=0;aspect=fixed;shape=mxgraph.aws4.resourceIcon;resIcon=mxgraph.aws4.eventbridge;" vertex="1" parent="1">
          <mxGeometry x="2520" y="220" width="78" height="78" as="geometry" />
        </mxCell>
        <mxCell id="EBlCGBkutDvsYMYkgB6L-46" value="&lt;font style=&quot;font-size: 22px;&quot;&gt;nedge-supply-topic&lt;/font&gt;" style="sketch=0;points=[[0,0,0],[0.25,0,0],[0.5,0,0],[0.75,0,0],[1,0,0],[0,1,0],[0.25,1,0],[0.5,1,0],[0.75,1,0],[1,1,0],[0,0.25,0],[0,0.5,0],[0,0.75,0],[1,0.25,0],[1,0.5,0],[1,0.75,0]];outlineConnect=0;fontColor=#232F3E;fillColor=#E7157B;strokeColor=#ffffff;dashed=0;verticalLabelPosition=bottom;verticalAlign=top;align=center;html=1;fontSize=12;fontStyle=0;aspect=fixed;shape=mxgraph.aws4.resourceIcon;resIcon=mxgraph.aws4.sns;" vertex="1" parent="1">
          <mxGeometry x="2118" y="423" width="72" height="72" as="geometry" />
        </mxCell>
        <mxCell id="EBlCGBkutDvsYMYkgB6L-50" style="edgeStyle=orthogonalEdgeStyle;rounded=0;orthogonalLoop=1;jettySize=auto;html=1;" edge="1" parent="1" source="EBlCGBkutDvsYMYkgB6L-48" target="EBlCGBkutDvsYMYkgB6L-24">
          <mxGeometry relative="1" as="geometry">
            <mxPoint x="1626" y="617.5454545454545" as="sourcePoint" />
          </mxGeometry>
        </mxCell>
        <mxCell id="EBlCGBkutDvsYMYkgB6L-66" style="edgeStyle=orthogonalEdgeStyle;rounded=0;orthogonalLoop=1;jettySize=auto;html=1;" edge="1" parent="1" source="EBlCGBkutDvsYMYkgB6L-56" target="EBlCGBkutDvsYMYkgB6L-57">
          <mxGeometry relative="1" as="geometry" />
        </mxCell>
        <mxCell id="EBlCGBkutDvsYMYkgB6L-56" value="&lt;font style=&quot;font-size: 22px;&quot;&gt;nedge-order-anomaly-topic&lt;/font&gt;" style="sketch=0;points=[[0,0,0],[0.25,0,0],[0.5,0,0],[0.75,0,0],[1,0,0],[0,1,0],[0.25,1,0],[0.5,1,0],[0.75,1,0],[1,1,0],[0,0.25,0],[0,0.5,0],[0,0.75,0],[1,0.25,0],[1,0.5,0],[1,0.75,0]];outlineConnect=0;fontColor=#232F3E;fillColor=#E7157B;strokeColor=#ffffff;dashed=0;verticalLabelPosition=bottom;verticalAlign=top;align=center;html=1;fontSize=12;fontStyle=0;aspect=fixed;shape=mxgraph.aws4.resourceIcon;resIcon=mxgraph.aws4.sns;" vertex="1" parent="1">
          <mxGeometry x="1100" y="309" width="72" height="72" as="geometry" />
        </mxCell>
        <mxCell id="EBlCGBkutDvsYMYkgB6L-57" value="&lt;font style=&quot;font-size: 22px;&quot;&gt;nedge-&lt;span style=&quot;background-color: transparent; color: light-dark(rgb(35, 47, 62), rgb(189, 199, 212));&quot;&gt;ai-queue&lt;/span&gt;&lt;/font&gt;" style="sketch=0;points=[[0,0,0],[0.25,0,0],[0.5,0,0],[0.75,0,0],[1,0,0],[0,1,0],[0.25,1,0],[0.5,1,0],[0.75,1,0],[1,1,0],[0,0.25,0],[0,0.5,0],[0,0.75,0],[1,0.25,0],[1,0.5,0],[1,0.75,0]];outlineConnect=0;fontColor=#232F3E;fillColor=#E7157B;strokeColor=#ffffff;dashed=0;verticalLabelPosition=bottom;verticalAlign=top;align=center;html=1;fontSize=12;fontStyle=0;aspect=fixed;shape=mxgraph.aws4.resourceIcon;resIcon=mxgraph.aws4.sqs;" vertex="1" parent="1">
          <mxGeometry x="1320" y="306" width="78" height="78" as="geometry" />
        </mxCell>
        <mxCell id="EBlCGBkutDvsYMYkgB6L-65" style="edgeStyle=orthogonalEdgeStyle;rounded=0;orthogonalLoop=1;jettySize=auto;html=1;entryX=0.5;entryY=0;entryDx=0;entryDy=0;entryPerimeter=0;" edge="1" parent="1" source="EBlCGBkutDvsYMYkgB6L-46" target="EBlCGBkutDvsYMYkgB6L-48">
          <mxGeometry relative="1" as="geometry" />
        </mxCell>
        <mxCell id="EBlCGBkutDvsYMYkgB6L-68" value="&lt;span style=&quot;font-size: 22px;&quot;&gt;Customer Tbl&lt;/span&gt;" style="outlineConnect=0;dashed=0;verticalLabelPosition=bottom;verticalAlign=top;align=center;html=1;shape=mxgraph.aws3.dynamo_db;fillColor=#2E73B8;gradientColor=none;" vertex="1" parent="1">
          <mxGeometry x="656" y="1050" width="63" height="70" as="geometry" />
        </mxCell>
        <mxCell id="EBlCGBkutDvsYMYkgB6L-71" value="&lt;span style=&quot;font-size: 22px;&quot;&gt;Notification Tbl&lt;/span&gt;" style="outlineConnect=0;dashed=0;verticalLabelPosition=bottom;verticalAlign=top;align=center;html=1;shape=mxgraph.aws3.dynamo_db;fillColor=#2E73B8;gradientColor=none;" vertex="1" parent="1">
          <mxGeometry x="1550" y="1050" width="63" height="70" as="geometry" />
        </mxCell>
        <mxCell id="EBlCGBkutDvsYMYkgB6L-48" value="&lt;font style=&quot;font-size: 22px;&quot;&gt;nedge-&lt;span style=&quot;background-color: transparent; color: light-dark(rgb(35, 47, 62), rgb(189, 199, 212));&quot;&gt;notification-queue&lt;/span&gt;&lt;/font&gt;" style="sketch=0;points=[[0,0,0],[0.25,0,0],[0.5,0,0],[0.75,0,0],[1,0,0],[0,1,0],[0.25,1,0],[0.5,1,0],[0.75,1,0],[1,1,0],[0,0.25,0],[0,0.5,0],[0,0.75,0],[1,0.25,0],[1,0.5,0],[1,0.75,0]];outlineConnect=0;fontColor=#232F3E;fillColor=#E7157B;strokeColor=#ffffff;dashed=0;verticalLabelPosition=bottom;verticalAlign=top;align=center;html=1;fontSize=12;fontStyle=0;aspect=fixed;shape=mxgraph.aws4.resourceIcon;resIcon=mxgraph.aws4.sqs;" vertex="1" parent="1">
          <mxGeometry x="1739.5" y="622" width="78" height="78" as="geometry" />
        </mxCell>
        <mxCell id="EBlCGBkutDvsYMYkgB6L-74" value="&lt;font style=&quot;font-size: 22px;&quot;&gt;Order Event Tbl&lt;/font&gt;" style="outlineConnect=0;dashed=0;verticalLabelPosition=bottom;verticalAlign=top;align=center;html=1;shape=mxgraph.aws3.dynamo_db;fillColor=#2E73B8;gradientColor=none;" vertex="1" parent="1">
          <mxGeometry x="810" y="1050" width="63" height="70" as="geometry" />
        </mxCell>
        <mxCell id="EBlCGBkutDvsYMYkgB6L-76" style="edgeStyle=orthogonalEdgeStyle;rounded=0;orthogonalLoop=1;jettySize=auto;html=1;entryX=0.5;entryY=0;entryDx=0;entryDy=0;entryPerimeter=0;" edge="1" parent="1" source="EBlCGBkutDvsYMYkgB6L-19" target="EBlCGBkutDvsYMYkgB6L-15">
          <mxGeometry relative="1" as="geometry" />
        </mxCell>
        <mxCell id="EBlCGBkutDvsYMYkgB6L-77" value="&lt;font style=&quot;font-size: 22px;&quot;&gt;Order Tbl&lt;/font&gt;" style="outlineConnect=0;dashed=0;verticalLabelPosition=bottom;verticalAlign=top;align=center;html=1;shape=mxgraph.aws3.dynamo_db;fillColor=#2E73B8;gradientColor=none;" vertex="1" parent="1">
          <mxGeometry x="2190" y="1060" width="63" height="70" as="geometry" />
        </mxCell>
        <mxCell id="EBlCGBkutDvsYMYkgB6L-78" style="edgeStyle=orthogonalEdgeStyle;rounded=0;orthogonalLoop=1;jettySize=auto;html=1;" edge="1" parent="1" source="EBlCGBkutDvsYMYkgB6L-80" target="EBlCGBkutDvsYMYkgB6L-81">
          <mxGeometry relative="1" as="geometry" />
        </mxCell>
        <mxCell id="EBlCGBkutDvsYMYkgB6L-79" style="edgeStyle=orthogonalEdgeStyle;rounded=0;orthogonalLoop=1;jettySize=auto;html=1;" edge="1" parent="1" source="EBlCGBkutDvsYMYkgB6L-80" target="EBlCGBkutDvsYMYkgB6L-82">
          <mxGeometry relative="1" as="geometry">
            <Array as="points">
              <mxPoint x="2530" y="818" />
              <mxPoint x="2530" y="1095" />
            </Array>
          </mxGeometry>
        </mxCell>
        <mxCell id="EBlCGBkutDvsYMYkgB6L-80" value="&lt;font style=&quot;font-size: 22px;&quot;&gt;NEdge Persiste&lt;/font&gt;&lt;span style=&quot;font-size: 22px; background-color: transparent; color: light-dark(rgb(35, 47, 62), rgb(189, 199, 212));&quot;&gt;nce&lt;/span&gt;" style="sketch=0;points=[[0,0,0],[0.25,0,0],[0.5,0,0],[0.75,0,0],[1,0,0],[0,1,0],[0.25,1,0],[0.5,1,0],[0.75,1,0],[1,1,0],[0,0.25,0],[0,0.5,0],[0,0.75,0],[1,0.25,0],[1,0.5,0],[1,0.75,0]];outlineConnect=0;fontColor=#232F3E;fillColor=#ED7100;strokeColor=#ffffff;dashed=0;verticalLabelPosition=bottom;verticalAlign=top;align=center;html=1;fontSize=12;fontStyle=0;aspect=fixed;shape=mxgraph.aws4.resourceIcon;resIcon=mxgraph.aws4.ecs;" vertex="1" parent="1">
          <mxGeometry x="2340" y="780" width="75" height="75" as="geometry" />
        </mxCell>
        <mxCell id="EBlCGBkutDvsYMYkgB6L-81" value="&lt;span style=&quot;font-size: 22px;&quot;&gt;Customer Tbl&lt;/span&gt;" style="outlineConnect=0;dashed=0;verticalLabelPosition=bottom;verticalAlign=top;align=center;html=1;shape=mxgraph.aws3.dynamo_db;fillColor=#2E73B8;gradientColor=none;" vertex="1" parent="1">
          <mxGeometry x="2346" y="1060" width="63" height="70" as="geometry" />
        </mxCell>
        <mxCell id="EBlCGBkutDvsYMYkgB6L-82" value="&lt;font style=&quot;font-size: 22px;&quot;&gt;Order Event Tbl&lt;/font&gt;" style="outlineConnect=0;dashed=0;verticalLabelPosition=bottom;verticalAlign=top;align=center;html=1;shape=mxgraph.aws3.dynamo_db;fillColor=#2E73B8;gradientColor=none;" vertex="1" parent="1">
          <mxGeometry x="2500" y="1060" width="63" height="70" as="geometry" />
        </mxCell>
        <mxCell id="EBlCGBkutDvsYMYkgB6L-83" style="edgeStyle=orthogonalEdgeStyle;rounded=0;orthogonalLoop=1;jettySize=auto;html=1;entryX=0.5;entryY=0;entryDx=0;entryDy=0;entryPerimeter=0;" edge="1" parent="1" source="EBlCGBkutDvsYMYkgB6L-80" target="EBlCGBkutDvsYMYkgB6L-77">
          <mxGeometry relative="1" as="geometry" />
        </mxCell>
        <mxCell id="EBlCGBkutDvsYMYkgB6L-86" style="edgeStyle=orthogonalEdgeStyle;rounded=0;orthogonalLoop=1;jettySize=auto;html=1;entryX=0.5;entryY=0;entryDx=0;entryDy=0;entryPerimeter=0;" edge="1" parent="1" source="EBlCGBkutDvsYMYkgB6L-57" target="EBlCGBkutDvsYMYkgB6L-38">
          <mxGeometry relative="1" as="geometry" />
        </mxCell>
      </root>
    </mxGraphModel>
  </diagram>
</mxfile>
